<svg width="15" height="15" viewBox="0 0 15 15" fill="none" xmlns="http://www.w3.org/2000/svg">
<path fill-rule="evenodd" clip-rule="evenodd" d="M6.61771 0.316553C6.71125 0.216642 6.82431 0.136995 6.94987 0.082545C7.07544 0.0280948 7.21085 0 7.34771 0C7.48458 0 7.61999 0.0280948 7.74555 0.082545C7.87112 0.136995 7.98417 0.216642 8.07771 0.316553L14.4227 7.08655C15.0227 7.72455 14.5687 8.76955 13.6927 8.76955H11.8477C11.2954 8.76955 10.8477 9.21727 10.8477 9.76955C10.8477 10.0348 10.7424 10.2891 10.5548 10.4767C10.3673 10.6642 10.1129 10.7696 9.84771 10.7696H4.84771C4.5825 10.7696 4.32814 10.6642 4.14061 10.4767C3.95307 10.2891 3.84771 10.0348 3.84771 9.76955C3.84771 9.21727 3.4 8.76955 2.84771 8.76955H1.00171C0.127713 8.76955 -0.326287 7.72455 0.271713 7.08555L6.61771 0.316553ZM3.84771 12.7696C3.84771 12.5043 3.95307 12.25 4.14061 12.0624C4.32814 11.8749 4.5825 11.7696 4.84771 11.7696H9.84771C10.1129 11.7696 10.3673 11.8749 10.5548 12.0624C10.7424 12.25 10.8477 12.5043 10.8477 12.7696V13.7696C10.8477 14.0348 10.7424 14.2891 10.5548 14.4767C10.3673 14.6642 10.1129 14.7696 9.84771 14.7696H4.84771C4.5825 14.7696 4.32814 14.6642 4.14061 14.4767C3.95307 14.2891 3.84771 14.0348 3.84771 13.7696V12.7696Z" fill="#555555"/>
</svg>
