<svg width="17" height="15" viewBox="0 0 17 15" fill="none" xmlns="http://www.w3.org/2000/svg">
<path fill-rule="evenodd" clip-rule="evenodd" d="M17 2.14286C17 1.57454 16.7716 1.02949 16.365 0.627629C15.9584 0.225765 15.407 1.91005e-07 14.832 1.91005e-07H7.15745C6.84466 -0.000130338 6.53554 0.0666415 6.25132 0.195732C5.9671 0.324822 5.71451 0.513174 5.51088 0.747857L0.261155 6.80357C0.0926367 6.99779 0 7.24521 0 7.50107C0 7.75693 0.0926367 8.00435 0.261155 8.19857L5.51088 14.2521C5.71451 14.4868 5.9671 14.6752 6.25132 14.8043C6.53554 14.9334 6.84466 15.0001 7.15745 15H14.832C15.407 15 15.9584 14.7742 16.365 14.3724C16.7716 13.9705 17 13.4255 17 12.8571V2.14286ZM6.31845 5.20071C6.26805 5.15098 6.22807 5.09191 6.20077 5.0269C6.17347 4.96189 6.15939 4.8922 6.15934 4.82181C6.15929 4.75142 6.17327 4.68171 6.20047 4.61666C6.22768 4.5516 6.26758 4.49249 6.3179 4.44268C6.36822 4.39287 6.42798 4.35335 6.49375 4.32636C6.55953 4.29938 6.63003 4.28547 6.70125 4.28542C6.77246 4.28537 6.84299 4.29918 6.9088 4.32607C6.97462 4.35296 7.03443 4.3924 7.08482 4.44214C8.37413 5.71652 10.4493 5.71682 11.7384 4.44214C11.7887 4.3924 11.8486 4.35296 11.9144 4.32607C11.9802 4.29918 12.0507 4.28537 12.1219 4.28542C12.1931 4.28547 12.2636 4.29938 12.3294 4.32636C12.3952 4.35335 12.455 4.39287 12.5053 4.44268C12.5556 4.49249 12.5955 4.5516 12.6227 4.61666C12.6499 4.68171 12.6639 4.75142 12.6638 4.82181C12.6638 4.8922 12.6497 4.96189 12.6224 5.0269C12.5951 5.09191 12.5551 5.15098 12.5047 5.20071C11.2244 6.46622 11.2244 8.53378 12.5047 9.79928C12.6065 9.89974 12.6637 10.036 12.6638 10.1782C12.6639 10.3204 12.6069 10.4567 12.5053 10.5573C12.4036 10.6579 12.2657 10.7145 12.1219 10.7146C11.9781 10.7147 11.8401 10.6583 11.7384 10.5579C10.4493 9.28318 8.37413 9.28348 7.08482 10.5579C7.03443 10.6076 6.97462 10.647 6.9088 10.6739C6.84299 10.7008 6.77246 10.7146 6.70125 10.7146C6.63003 10.7145 6.55953 10.7006 6.49375 10.6736C6.42798 10.6467 6.36822 10.6071 6.3179 10.5573C6.26758 10.5075 6.22768 10.4484 6.20047 10.3833C6.17327 10.3183 6.15929 10.2486 6.15934 10.1782C6.15944 10.036 6.21667 9.89974 6.31845 9.79928C7.5992 8.53396 7.5992 6.46604 6.31845 5.20071Z" fill="#555555"/>
</svg>
